# xmcd
#
# Track frame offsets: 
#        150
#        16933
#        35341
#        56147
#        85087
#        103486
#        128468
#        145560
#        179672
#        210542
#        239096
#        265341
#        289337
#        316787
#        337263
#
# Disc length: 4762 seconds
#
# Revision: 1
# Processed by: cddbd v1.5.2PL0 Copyright (c) Steve Scherf et al.
# Submitted via: ExactAudioCopy v0.99pb5
#
DISCID=e212980f
DTITLE=Billy's Band - Осенний Алкоджаз (Live 2009)
DYEAR=2009
DGENRE=Jazz
TTITLE0=Интро
TTITLE1=Бильярд
TTITLE2=Счастье есть (cool version)
TTITLE3=Коктейль из лунного света и вина
TTITLE4=Встречай меня, Москва!
TTITLE5=Отоспимся в гробах (chlorophormium version)
TTITLE6=32 рубля (bop version)
TTITLE7=Дорожная
TTITLE8=Снежная королева
TTITLE9=Оторвёмся по-питерски (jazz version)
TTITLE10=В этом городе
TTITLE11=200 см3 Агдама
TTITLE12=Выпей вина
TTITLE13=Кладбище девичьих сердец
TTITLE14=Аутро и представление (Live 2009)
EXTD=
EXTT0=
EXTT1=
EXTT2=
EXTT3=
EXTT4=
EXTT5=
EXTT6=
EXTT7=
EXTT8=
EXTT9=
EXTT10=
EXTT11=
EXTT12=
EXTT13=
EXTT14=
PLAYORDER=
